<svg width="196" height="196" viewBox="0 0 196 196" fill="none" xmlns="http://www.w3.org/2000/svg">
<rect width="195.68" height="195.68" rx="97.8398" fill="#5CEBA0"/>
<g clip-path="url(#clip0_5701_859)">
<path d="M79.0787 89.3333C79.1683 89.3333 79.2543 89.2977 79.3177 89.2343C79.3811 89.171 79.4167 89.085 79.4167 88.9954V65.338C79.4167 65.2483 79.3811 65.1624 79.3177 65.099C79.2543 65.0356 79.1683 65 79.0787 65H49.338C49.2483 65 49.1624 65.0356 49.099 65.099C49.0356 65.1624 49 65.2483 49 65.338V71.7593C49 76.4202 50.8515 80.8902 54.1473 84.186C57.4431 87.4818 61.9131 89.3333 66.5741 89.3333H79.0787Z" fill="#1D1F21"/>
<path d="M145.995 65H91.9213C91.8317 65 91.7457 65.0356 91.6823 65.099C91.619 65.1624 91.5834 65.2483 91.5834 65.338V101.5C91.5834 104.727 90.3015 107.821 88.0198 110.103C85.7381 112.385 82.6435 113.667 79.4167 113.667H61.5046C61.415 113.667 61.3291 113.702 61.2657 113.766C61.2023 113.829 61.1667 113.915 61.1667 114.005V137.662C61.1667 137.752 61.2023 137.838 61.2657 137.901C61.3291 137.964 61.415 138 61.5046 138H133.829C133.918 138 134.004 137.964 134.068 137.901C134.131 137.838 134.167 137.752 134.167 137.662V114.005C134.167 113.915 134.131 113.829 134.068 113.766C134.004 113.702 133.918 113.667 133.829 113.667H128.083C124.857 113.667 121.762 112.385 119.48 110.103C117.199 107.821 115.917 104.727 115.917 101.5C115.917 98.2732 117.199 95.1786 119.48 92.8969C121.762 90.6152 124.857 89.3333 128.083 89.3333H145.995C146.085 89.3333 146.171 89.2977 146.234 89.2343C146.298 89.171 146.333 89.085 146.333 88.9954V65.338C146.333 65.2483 146.298 65.1624 146.234 65.099C146.171 65.0356 146.085 65 145.995 65V65Z" fill="#1D1F21"/>
</g>
<defs>
<clipPath id="clip0_5701_859">
<rect width="97.3333" height="73" fill="white" transform="translate(49 65)"/>
</clipPath>
</defs>
</svg>
